# xmcd
#
# Track frame offsets: 
#        150
#        13131
#        24734
#        36568
#        47089
#        59408
#        71371
#        85294
#        97809
#        109152
#        120462
#        133022
#        144940
#        155831
#        166696
#        178490
#        189747
#        202209
#        215201
#        228353
#        239874
#        251250
#        263676
#        276503
#        288967
#
# Disc length: 4005 seconds
#
# Revision: 2
# Processed by: cddbd v1.5.2PL0 Copyright (c) Steve Scherf et al.
# Submitted via: ExactAudioCopy v1.3
#
DISCID=830fa319
DTITLE=Various Artist - Farewell Blues_Hot String Bands 1936-1941
DYEAR=2003
DGENRE=Country
TTITLE0=Clayton McMichen and His Georgia Wildcats - Put On Your Old Grey
TTITLE0=Bonnet [1939]
TTITLE1=Dixieland Swingsters - Fiddleobia [1937]
TTITLE2=Hi Neighbor Boys - Keep Truckin' [1938]
TTITLE3=Swing Billies - I Can't Give You Anything but Love [1937]
TTITLE4=Al Clauser and His Oklahoma Outlaws - Whoa, Mule, Whoa [1937]
TTITLE5=Eldon Baker and His Brown County Revelers - Happy Cowboy [1938]
TTITLE6=Westerners - Buckaroo Stomp [1934]
TTITLE7=Ambrose Haley and His Ozark Ramblers - I'm So Alone with the Cro
TTITLE7=wd [1937]
TTITLE8=Hugh and Shug's Radio Pals - Union County [1937]
TTITLE9=Rice Brothers Gang - Japanese Sandman [1939]
TTITLE10=Herald Goodman and His Tennessee Valley Boys - Tennessee Swing 
TTITLE10=[1938]
TTITLE11=Claude Casey and His Pine State Playboys - You're Gonna Be Sorr
TTITLE11=y [1940]
TTITLE12=Hi Neighbor Boys - Guitar Fantasy [1938]
TTITLE13=Swing Billies - Leavin' Home [1937]
TTITLE14=Tobacco Tags - Little Red Piggy [1941]
TTITLE15=Washboard Wonders - Let's Incorporate [1936]
TTITLE16=Sons of the Ozarks - Sweet Irene from Illinois [1939]
TTITLE17=Texas Jim Lewis and His Lone Star Playboys - Crawdad Song [1937
TTITLE17=]
TTITLE18=Jack Pierce and His Oklahoma Cowboys - Has Anybody Seen My Gal 
TTITLE18=[1936]
TTITLE19=Eldon Baker and His Brown County Revelers - It's Hard [1938]
TTITLE20=Slim Johnson and the Singing Cowboys - Honeysuckle Blues [1940]
TTITLE21=Carl Boling and His Four Aces - Big Fat Gal of Mine [1939]
TTITLE22=Tennessee Ramblers - Tonight You Belong to Me [1939]
TTITLE23=Louise Massey and the Westerners - Huckleberry Picnic [1941]
TTITLE24=Clayton McMichen and His Georgia Wildcats - Farewell Blues [193
TTITLE24=7]
EXTD=Concept and compilation by Kevin Coffey and Dave Sax.\nRemastered
EXTD=by Dave Sax and Charlie Crump.\nAnnotated by Kevin Coffey.\nCD: 
EXTD=Interstate/Krazy Kat KK CD 30 (2003-08-26), UPC 008637603021.
EXTT0=
EXTT1=
EXTT2=
EXTT3=
EXTT4=
EXTT5=
EXTT6=
EXTT7=
EXTT8=
EXTT9=
EXTT10=
EXTT11=
EXTT12=
EXTT13=
EXTT14=
EXTT15=
EXTT16=
EXTT17=
EXTT18=
EXTT19=
EXTT20=
EXTT21=
EXTT22=
EXTT23=
EXTT24=
PLAYORDER=
